<?xml version="1.0" encoding="UTF-8"?>
<svg xmlns="http://www.w3.org/2000/svg" xml:space="preserve" viewBox="0 0 1080 1296">
  <path fill="#fff" d="M1020 559q-30-31-75-39 16-10 18-29 1-19-14-32-13-12-30-11h-6l-3-7q-9-16-27-18v-14q-2-17-18-27l-6-3-5-11v-2q3-8 2-17c-1-18-14-33-32-37h-15l-13 2q-6-5-14-8-3-8-10-14a40 40 0 0 0-34-12 37 37 0 0 0-19-27v-14q-1-7-5-15-10-21-34-22-19 0-31 16-9 13-9 28v6l-10 4q0-15-8-31a59 59 0 0 0-53-33h-2q-16 0-32 8l-9 5q2-12-6-22-13-17-35-17-26 1-39 20-9 16-9 26l-1 1-3 32-12-1q-15 0-27 8l-1-8v-1l-2-13-1-4a43 43 0 0 0-14-19q-12-9-27-11h-4c-20 0-35 14-38 33l-1 7a76 76 0 0 0-49-20h-8q-18 0-34 8-30 14-37 46-4 18-1 37 3 17 9 29v1l13 27a39 39 0 0 0-24-4 41 41 0 0 0-39-19c-11 1-29 8-36 37q-3 14-4 25l1 29c0 6 1 20 12 31l6 6c-23 4-45 17-58 37a82 82 0 0 0-8 78l-12 17a83 83 0 0 0 3 85l1 1c19 31 53 50 91 52q12 16 32 16l6-1q-1 25 17 39 11 9 27 9h5q-8 2-15 6-11 6-17 14h-10q5-12 1-25a39 39 0 0 0-43-28 41 41 0 0 0-39-19c-11 2-29 8-36 37q-3 14-4 25l1 29c0 6 1 20 12 32a36 36 0 0 0 35 10q15-5 30-15l-1 4-2 15v2q-3 20-2 39l-1 7v1q-1 33 3 68l1 15 2 15 6 42c1 5 3 21 18 32v1a44 44 0 0 0 37 7q17 14 38 14l19-3v-1q22-9 31-24a68 68 0 0 0 27 5q17-2 27-14l1 1v1q4 27 31 32l6 1h13l16-5 1-1 11-8q6 5 15 7a64 64 0 0 0 35 0q17-5 25-19 14 12 42 13h1q29-2 53-18 34-26 43-68a69 69 0 0 0-8-46q-10-16-27-20 4-6 4-14a36 36 0 0 0-19-34l-3-2h-1l-1-1 7 1 15-3 14-9 7-8 1 2q2 11 9 19l-2 3c-6 9-10 24-4 38q5 12 16 18 6 5 15 6l8 1h11l46 6h2l-4 3q-12 14-15 32-3 20 6 39 20 40 69 40 33 0 54-19l11-14 12-26h1q4-14 3-31 16-2 28-13 17-16 17-41v-11a36 36 0 0 0 29 5c26-7 54-34 62-42q18-19 12-44a39 39 0 0 0-43-28l-5-6q27-9 30-37l-1-12 22-22q41-46 45-103 3-58-33-97"></path>
  <g fill="#f11d60">
    <path d="M282 985a210 210 0 0 1-12 67q-4 14-12 29-6 10-16 14-21 6-32-12-5-10-8-21a90 90 0 0 1 11-64q10-14 24-24l19-15q4-3 4-7l-2-27-1-10q-3-24-12-48-1-6-6-11-5-4-9 0-5 5-8 12l-8 24-6 25-4 27-3 30-1 15-3 43-2 41-2 7q-6 8-15 2-5-4-6-12l-5-40-4-30q-2-32-2-64-1-22 2-43l4-27 1-2q1-10 13-9 4-1 8 1 3 1 3 4l-1 35 1 2 1-6q4-21 14-40 4-9 13-14 19-10 33 6 7 10 11 21 4 15 9 28 4 15 4 31l3 26q-1 4 3 4h11q6 0 12 4 5 3 4 6-3 5-7 6h-10l-12 1zm-21 7-1-6q-3-6-8-3l-6 4q-14 12-22 28l-2 4-3 17q-4 16 1 32 1 5 5 9l4 3q7 1 12-5l3-5q9-18 13-38 4-17 3-33zm55 62-2 14q-1 7-7 7-7 0-13-4l1-11 4-25 5-28 5-35 6-34 3-24 4-20 4-24 3-21 4-23q0-6 6-5 8 1 11 4l2 4 2 12 7 39 5 30 6 31 4 23 10 55 4 27 3 21 2 14q1 7-5 13l-8 2-5-1c-6-1-5-1-7-7l-6-30-1-10q0-3-3-3l-20 1-22 1zm18-149-7 63-8 64 14-1 12-2q7 0 13-1zm88-92-27 7-28 8q-6 3-8-3-3-7-1-14l3-3 11-4a388 388 0 0 1 67-17l24-4 22-3 37-4 25-3 6 3 10 10 2 1q4 8-5 8l-11-1h-9q-15-1-30 2l-33 5-16 4q-3 0-3 3l-1 10v102l2 77 2 58 2 18 1 4q3 10-7 13-9 3-16 0-6-1-6-7l-2-56-2-48v-23l-2-50v-59l1-31v-5z"></path>
    <path d="M524 947q-7-8-10-17-5-16-4-34 1-24 13-47 11-18 30-27 7-5 18-5 18-1 26 15c8 15 4 34-8 45l-4 3q-6 2-7-5l1-4q3-13 1-25l-1-9-2-3q-4-6-9-2l-9 9q-7 9-12 21-8 16-11 34-3 16-1 32l5 10q4 7 12 5 5-3 11 0l2 1q3 3 0 5l-8 6a105 105 0 0 0-39 57q-5 17-2 35l7 17q8 10 18 5 18-7 29-25 6-14 2-29l-2-5v-5l10-8 4-2q6-1 9 4 7 12 4 25-5 29-30 46-15 12-34 12-15 1-26-10-8-9-10-21-3-14-3-28 2-27 18-46l19-18 3-3z"></path>
  </g>
  <path d="M153 404s17-12 28-12q5 1 6 4 3 5-4 12s-28 28-47 33h-3q-3-5-4-12a204 204 0 0 1 3-43c1-5 3-12 9-13h1c2 0 11 3 11 31m-40 409s17-12 28-12q4 0 6 5 2 4-4 12s-28 28-47 33l-3-1q-3-5-4-12a204 204 0 0 1 3-43c1-5 3-12 9-13h1c2 1 11 4 11 31m827 68s17-12 28-12q4 0 6 5 3 4-4 12s-27 28-47 33l-3-1q-4-5-3-12a204 204 0 0 1 2-43c1-5 3-12 9-13h1c2 1 11 4 11 31m-15-238s17-12 28-12q4 1 6 5 3 5-4 12s-27 28-47 33l-3-1q-4-5-3-12a204 204 0 0 1 2-43c1-5 3-12 9-12h1c2 0 11 3 11 30M656 883l14-1 66-5c18-3 43-11 57-17 18-10 25-16 31-27l3-6-1-5-1-6-1-4-7-6-14-6c-4-2-5-2-13-2-11 0-13 1-24 6q-10 5-16 11t-6 13l2 6q5 7 14 9l11 1c7-1 10-2 17-8h7l3 4q1 3-6 8-18 13-41 3-15-6-20-24l-1-10 4-17q11-22 37-28l15-1 15 4q13 4 21 14 11 11 14 23l1 12v10q-4 17-15 32-13 16-32 23a264 264 0 0 1-122 6l-10-1-3-1-1-1-3-3q0-4 5-7m163 29-9-2q-3-1-5-4v-5l1-1q0-3 5-3l19-7 14-10 8-12q8-12 18-9l8 6c9 8 8 23-2 32q-12 11-28 15zm-17 12v-4l4-4h14a76 76 0 0 1 42 20q9 8 8 21 0 11-7 17-11 9-21 0-4-3-5-11l-4-13q-7-14-24-21-7-3-7-5m-146 11 22-2h43c13 0 29 2 39 5q13 3 23 8 15 10 27 27 6 9 11 21c4 12 5 29 2 37l-6 14-4 6-5 7q-11 11-32 11-29 0-39-22-5-10-3-20 1-8 7-14 10-14 31-13 12-1 13 1 3 4 1 6v1l-6 2-8 1q-11 1-15 3c-3 1-10 8-11 10v3l5 5q5 6 15 9l13 1c10 0 10 0 14-2q13-4 18-12c2-3 2-3 2-8 0-16-4-25-15-35q-6-7-17-12-24-13-58-19a292 292 0 0 0-62-7h-5l-1-1-2-3-1-2 1-4zM140 597h-2c-46-28-99 25-70 71v1c20 32 57 39 82 36q22-5 26-26c3-25-5-62-36-82"></path>
  <path d="m166 690-3 2-2 3 8 14 5-6 6-5z"></path>
  <path d="m311 848-1 1q-2-8-8-14-9-6-25-9c-16-2-14-16-13-31q3-14-1-25c-3-12-17-8-31-4q-16 6-25 1c-7-5-4-14 0-23q6-11 5-24l-3-4c-6-4-18 0-28 2-11 3-21 6-23 1-3-11 14-25 15-26v1s-17 14-13 25c1 4 11 1 21-2q18-6 28-2l4 5q1 12-5 25c-4 9-7 17-1 21 5 4 15 1 25-1 14-4 28-8 32 4q3 12 1 27c-1 15-2 28 12 29q17 3 25 9t9 14M81 574l-1-2c-20-49 40-94 82-59l1 1c28 24 30 61 23 86q-7 21-30 21c-25 0-60-13-75-47"></path>
  <path d="m168 613 3-2 4-2 12 10-7 4-6 5z"></path>
  <path d="m304 780 1-1q-9-3-13-10-5-10-5-26c1-16-14-16-29-17q-14 0-25-5c-10-5-5-18 1-31q8-15 5-25c-4-8-13-6-23-3q-12 4-25 1-2-1-3-4c-3-6 2-17 6-27 5-10 9-19 4-22-10-5-27 10-27 10l1 1s16-15 26-10q4 5-5 21c-4 10-9 21-6 28q1 3 4 4 13 3 25-1c10-3 18-5 22 2q3 10-5 24c-6 14-12 27 0 33q11 5 25 5c15 1 28 1 28 16q0 17 5 26 5 8 13 11m15-195 5 23 1 1 21 12q3 1 0 3l-20 12-1 1-5 24q0 2-3 1l-17-16-2-1-24 4-2-3 10-22v-2l-10-21q-1-2 1-3l24 3 2-1 17-16q2-2 3 0"></path>
  <g fill="#aec935">
    <path d="m675 318-2-4q-5-15-15-26l-3-4-3-1q-3-1-5 3l1 5 7 12 11 17 9 13 1 3v24l-2-4a111 111 0 0 0-16-29l-4-3q-5-2-6 4-1 5 2 9l8 13q10 13 16 27 3 5 3 11v26l-2-2q-5-14-13-26l-7-10-4-3q-7-2-7 5v3l5 10 8 12q12 17 20 36l1 5v38l1 9 4 1 30-1 9 1 9 1q9 0 17 5l15 8 11 6q6 3 12 4h5q3-2 2-5l-4-5q-7-6-18-10l-10-3-5-2h4l25-1 4 1 20 12 27 16q6 1 5-6-1-4-5-6l-8-7-16-8-3-2h2l21-1 5 1 19 12 17 10 6 2q3 0 4-4l-2-4q-3-4-8-6l-16-9q-2 1-3-2h2q20 0 41 4l17 1h9l5-2q5-4 0-8-4-3-9-3h-16l-21 2-15 1h-20l2-2a88 88 0 0 0 31-18l2-4q1-3-3-5l-6 1-12 7-17 12-15 8-22 1h-3l3-2a110 110 0 0 0 32-19q3-2 2-5-2-2-5-2l-9 2-13 8q-12 10-26 16-5 3-11 3h-27l3-2q14-5 26-13l10-7 3-5q1-5-4-6h-4l-10 5-13 9a194 194 0 0 1-40 20l-35 1-2-1v-25l-1-12 1-11 1-5q0-9 5-16l8-15 7-11 3-12v-4q-2-5-6-3l-4 4q-7 9-10 18l-3 9-1 5-1-2-1-26 1-4 12-20 13-19 2-6 1-3q0-5-5-4-4 0-6 3l-7 9-9 16-2 4v-2l-1-21 2-5 11-19 12-21q1-7-6-5l-3 2-6 7-7 15-2 4-1-2 3-42 2-24-2-5q-4-7-9-1-2 5-2 9v16l3 24z"></path>
    <path d="M787 408h5l31-4q9 0 17 2l7 3q7 5 2 11-1 3-4 3-4 5-12 6-18 6-38 9l-30 6-14 1-25 3h-2q-4 0-5-3l-1-8 1-32a415 415 0 0 1 10-75l5-11 4-5q6-4 11 1l3 5q4 8 4 16 2 18-1 36v3l2-3 9-23v-5q-1-3 2-6 4-2 7 1 3 5-2 8l-4 2-5 16-6 16 3-2 21-19q10-8 21-13l10-3h5q5 1 6 7l-1 6-3 7-11 15-19 20-3 3 31-13 3-3h5q4 4 1 8l-6 1-2-1-31 13zh-1v1zm-59 25 4-5 23-24 3-3 2 1v1l-3 3-22 26-3 3h4l13-4 4-1 1 2-13 5-13 5h3l32-3 31-5 36-9 10-4 5-3q2-3-1-4l-5-3q-6-2-13-2l-13 1-24 3q-12 2-24 5h-1l-2-1 1-2 8-6a191 191 0 0 0 42-43l5-9 1-5q0-3-3-3h-3l-7 2q-11 4-20 12a231 231 0 0 0-35 36l-1 2h-2l-1-1v-7l3-20q3-15 2-31 0-10-3-19l-3-5h-5q-2 3-3 5a145 145 0 0 0-11 43l-2 27-1 5-1 26 1 3 1-1 8-21 2-5h2v5l-7 20z"></path>
  </g>
  <path d="m936 780 12 3q7 2 6 9-1 6-6 7l-65 11q-18 0-11-17 15-31 40-54 8-6 14-1 5 8 0 14l-9 12c39-23 70-53 82-98 13-51-21-97-76-102q-15-1-30 1-7 2-10-4 0-7 8-7c65-14 134 21 129 100q-4 48-36 84-19 21-48 42"></path>
  <path fill="#f11d60" d="M301 372h1v2l-1 2c-3 5-3 5-8 7l-11 5 2 7q4 10 6 20l4 19a93 93 0 0 1-3 38q-5 15-17 21t-26 4q-16-4-23-18-9-16-7-33 3-27 22-45l10-10q3-2 1-4l-18-29-17-34q-4-11-6-23-3-12 0-23 3-17 19-25 9-4 20-4h7q24 2 36 21 7 12 8 25l1 9q0 9-3 16-2 5-6 8l-6 2-3-2 1-3q3-3 3-7v-21l-4-18q-1-11-12-17-6-3-14-2l-4 2q-8 4-13 12-4 7-4 16 1 10 4 19 9 23 22 45l14 22v1q13-4 25-5m-44 31q-12 9-19 21-8 13-5 28 3 12 10 21 5 6 14 11 9 3 14-4l3-7q3-7 1-18l-5-24-11-27-1-1zm66 59-2 15q-1 5-7 6-7 0-13-4l1-11 4-25 4-27 6-36 6-33 3-25 4-20 4-24 3-21 4-23q0-6 6-5 8 1 11 4l2 4 2 13 7 39 5 30 6 31 4 22 10 55 4 27 3 21 2 14q1 8-5 13l-8 2-5-1c-6-1-5-1-7-7l-6-30-1-10q0-3-3-3l-20 1-22 1zm18-149-7 63-8 64 13-1 13-2q7 0 13-1zm110 59 4-34 5-41 5-41 4-38q1-8 5-13c3-6 15-9 20-2l-5 23-4 31-3 35-2 29v13q-1 37-3 73l-1 71q1 7-5 12c-8 6-19 5-23-4l-5-12a1641 1641 0 0 1-33-166l-1-21q3-13 16-10 6 2 7 7l1 7 4 23 3 22 6 25 3 11 1 3h1zm69-17q-6-8-9-16-5-18-5-34 2-25 13-48 12-18 30-27 9-5 19-5 18 1 25 15c8 16 4 34-8 45l-4 3q-6 2-7-5l1-4q3-13 2-25l-2-9-1-3q-5-6-9-2l-9 9q-8 10-12 22-7 16-12 34-4 16 0 31l4 10q5 7 12 5h11l3 1q3 3 0 6l-8 5a105 105 0 0 0-40 57q-4 18-1 35 1 9 7 17 6 10 17 6 20-8 29-26 6-15 2-29l-2-5q-2-2 1-5l9-8 5-2q6 0 8 4 6 12 5 25-6 29-30 46-15 12-35 12-14 1-25-10-8-8-11-20-3-14-2-29 0-27 18-46l19-18 2-3z"></path>
  <path fill="#6a170c" d="M489 541c18 0 24-8 31-17 25 0 25 46-16 46-29 0-53-19-78-19-28 0-33 35-19 35q-4 10-17 10c-33 0-30-62 27-62 23 0 47 7 72 7m-58 195v19h-15c1-10 11-2 11-19zm-4-191c14 4 32 18 48 0v210h-48zm58 210h-14v-19h4c0 17 10 9 10 19m66-219h14v20h-4c0-18-10-9-10-20m14 200v20h-14c0-11 10-2 10-20zm-4-200h47v220h-47zm44 20v-20h14c0 11-10 2-10 20zm14 200h-14v-20h4c0 18 10 9 10 20m39-93q0-18-14-20c-11 0-11 19 2 19 1 5-3 15-16 15-26 0-27-48 9-48q27 1 28 33zm-18-127h14v20h-4c0-18-10-9-10-20m58 220h-48V536h48zm17 13q-1 24-30 26c-23 0-35-16-35-40 0-16 48-30 48-14q-1 27 17 28m-21-213v-20h15c0 11-11 2-11 20zm27-20h14v20h-3c0-18-11-9-11-20m15 200v19h-15c0-10 11-2 11-19zm-4-200h47v219h-47zm7 0h124v17H739zm0 77h108v17H739zm17 143c-14 0 3-17 10-17h23c54 0 66-61 40-61-15 0-16 21 4 21q-2 15-20 16c-35 0-34-54 17-54 57 0 53 95-31 95zm71-129h20v14c-11 0-2-11-20-11zm20-24v14h-20v-3c18 0 9-11 20-11m-4-54h20v15c-11 0-2-11-20-11z"></path>
</svg>
