<?xml version="1.0" encoding="UTF-8"?>
<svg xmlns="http://www.w3.org/2000/svg" shape-rendering="geometricPrecision" text-rendering="geometricPrecision" image-rendering="optimizeQuality" fill-rule="evenodd" clip-rule="evenodd" viewBox="0 0 512 406.367">
  <path fill="#4D4D4D" fill-rule="nonzero" d="M194.61 81l45.247-78.873a4.225 4.225 0 016.913-.606l61.752 66.171a4.221 4.221 0 01-2.61 7.065l-18.821 2.202 15.976 136.596a4.225 4.225 0 01-3.716 4.676l-61.103 7.147a4.224 4.224 0 01-4.675-3.716L217.598 85.089l-18.841 2.205A4.226 4.226 0 01194.61 81zM424.335 173.102l68.619 2.115a3.185 3.185 0 012.929 4.204l-22.204 64.853a3.19 3.19 0 01-5.728.66l-8.075-11.642-85.369 59.217a3.185 3.185 0 01-4.43-.811l-26.489-38.188a3.186 3.186 0 01.81-4.43l85.358-59.207-8.17-11.78a3.185 3.185 0 012.749-4.991z"></path>
  <path fill="#08F" d="M221.885 84.492l61.033-6.928 15.771 135.182-60.981 7.646z"></path>
  <path fill="#FB0" d="M283.24 80.318l.994 8.506-58.258 22.484a4.288 4.288 0 01-.926.242l-.999-8.535 58.152-22.442a4.193 4.193 0 011.037-.255zm3.023 25.857l.994 8.507-58.256 22.484a4.19 4.19 0 01-.926.242l-.999-8.535 58.15-22.443c.341-.132.69-.215 1.037-.255zm3.022 25.859l.996 8.508-58.255 22.483a4.284 4.284 0 01-.927.242l-.997-8.535 58.149-22.444c.341-.13.688-.213 1.034-.254zm3.023 25.858l.994 8.508-58.253 22.483a4.24 4.24 0 01-.925.243l-.999-8.536 58.151-22.443c.34-.131.687-.213 1.032-.255zm3.024 25.859l.994 8.508-58.251 22.483a4.19 4.19 0 01-.926.242l-.999-8.535 58.15-22.443a4.2 4.2 0 011.032-.255z"></path>
  <path fill="#4D4D4D" fill-rule="nonzero" d="M109.149 178.406a4.565 4.565 0 002.482 2.471c19.393 7.975 38.091 17.782 55.636 29.378 16.973 11.219 32.875 24.119 47.298 38.661 11.748 11.845 22.52 24.79 32.087 38.806a268.572 268.572 0 0124.177 43.616l1.446 3.297-3.189-1.677c-8.778-4.62-18.843-8.66-29.667-12.112-11.603-3.7-24.107-6.738-36.863-9.1-18.611-3.447-37.83-5.477-55.626-6.06-17.972-.589-34.496.288-47.479 2.659a4.573 4.573 0 00-2.945 1.894 4.576 4.576 0 00-.752 3.421 4.576 4.576 0 001.894 2.946 4.58 4.58 0 003.422.752c12.512-2.285 28.49-3.116 45.904-2.522 17.212.589 35.844 2.573 53.932 5.923 16.305 3.02 32.128 7.146 45.993 12.347 12.692 4.758 23.759 10.429 32.084 16.982a4.599 4.599 0 002.082.92c.529.085 5.624-.303 6.16-.571a4.642 4.642 0 001.675-1.425l.186-.258.279-.137c10.066-4.956 21.416-9.482 33.358-13.244 11.487-3.621 23.547-6.543 35.563-8.476 11.476-1.845 22.897-2.788 33.717-2.577 10.091.2 19.657 1.407 28.251 3.82a4.59 4.59 0 003.487-.418 4.564 4.564 0 002.166-2.754 4.6 4.6 0 00-.418-3.492 4.568 4.568 0 00-2.755-2.167c-9.232-2.593-19.413-3.901-30.089-4.14-11.53-.257-23.656.725-35.796 2.679-9.661 1.553-19.367 3.73-28.818 6.383-9.773 2.745-19.269 6.006-28.151 9.62l-4.283 1.743 2.806-3.678c2.738-3.589 5.994-7.594 9.668-11.82a292.557 292.557 0 0110.976-11.95c6.249-6.441 13.164-12.95 20.46-18.963 6.415-5.284 13.13-10.193 19.956-14.337a3.634 3.634 0 001.646-2.24c.221-.907.098-1.9-.422-2.76a3.616 3.616 0 00-2.235-1.646 3.653 3.653 0 00-2.761.422c-7.103 4.308-14.075 9.394-20.723 14.86-7.56 6.217-14.708 12.936-21.153 19.579a277.551 277.551 0 00-10.692 11.667 251.152 251.152 0 00-9.68 11.883l-2.788 3.658.532-4.566c1.085-9.29 2.759-18.524 4.953-27.659 2.268-9.46 5.099-18.811 8.406-27.999 4.806-13.352 10.634-26.381 17.25-38.964 7.007-13.328 14.905-26.171 23.41-38.381a4.58 4.58 0 00-1.15-6.391 4.58 4.58 0 00-6.391 1.15c-8.72 12.516-16.812 25.69-23.991 39.369-6.795 12.943-12.791 26.362-17.746 40.13a281.27 281.27 0 00-6.092 18.993 260.378 260.378 0 00-4.573 18.878l-1.563 7.724-10.827-91.514-9.119 1.077 11.419 96.511-3.199-6.233a278.475 278.475 0 00-22.62-36.748c-8.624-11.847-18.101-22.916-28.289-33.191-14.85-14.974-31.221-28.255-48.691-39.805-18.061-11.943-37.304-22.037-57.261-30.244a4.573 4.573 0 00-3.506.013 4.563 4.563 0 00-2.471 2.481 4.578 4.578 0 00.013 3.506z"></path>
  <path fill="#08F" d="M431.704 192.477l26.421 38.182-85.427 59.23-26.49-38.189z"></path>
  <path fill="#FB0" d="M456.28 231.938l-5.317 3.686-35.714-30.851a3.217 3.217 0 01-.504-.549l5.336-3.694 35.652 30.797c.213.184.395.39.547.611zm-16.163 11.207l-5.317 3.686-35.712-30.848a3.114 3.114 0 01-.509-.559l5.331-3.693 35.662 30.805c.212.183.393.389.545.609zm-16.162 11.204l-5.318 3.688-35.709-30.844a3.12 3.12 0 01-.518-.569l5.329-3.693 35.674 30.815c.21.181.392.384.542.603zm-16.163 11.207l-5.319 3.688-35.706-30.841a3.198 3.198 0 01-.526-.581l5.327-3.689 35.684 30.823c.209.181.389.384.54.6zm-16.162 11.207l-5.321 3.689-35.701-30.84a3.184 3.184 0 01-.532-.591l5.323-3.688 35.693 30.832c.208.18.388.381.538.598z"></path>
  <path fill="#FDAA0F" d="M86.367 206.948l-1.738 1.002c-8.179-14.167-20.619-23.487-37.322-27.962-16.702-4.476-32.135-2.624-46.304 5.556L0 183.807c14.169-8.18 23.489-20.62 27.951-37.347 4.46-16.727 2.609-32.161-5.542-46.279l1.737-1.002c8.179 14.167 20.62 23.487 37.322 27.962 16.702 4.476 32.136 2.624 46.303-5.555l1.002 1.736c-14.167 8.18-23.487 20.62-27.962 37.323-4.476 16.702-2.624 32.135 5.556 46.303zM372.113 188.085h-1.883c0-15.357-5.739-28.773-17.217-40.251-11.478-11.478-24.893-17.217-40.252-17.217v-1.882c15.359 0 28.774-5.74 40.253-17.243 11.477-11.506 17.216-24.922 17.216-40.225h1.883c0 15.357 5.739 28.773 17.217 40.251 11.478 11.478 24.893 17.217 40.25 17.217v1.882c-15.357 0-28.772 5.739-40.251 17.217-11.478 11.478-17.216 24.894-17.216 40.251zM460.211 406.367h-1.696c0-13.839-5.172-25.929-15.517-36.273-10.343-10.344-22.433-15.515-36.274-15.515v-1.697c13.841 0 25.931-5.172 36.275-15.539 10.344-10.369 15.516-22.459 15.516-36.25h1.696c0 13.839 5.172 25.929 15.516 36.274 10.344 10.343 22.434 15.515 36.273 15.515v1.696c-13.839 0-25.929 5.172-36.274 15.516-10.343 10.344-15.515 22.434-15.515 36.273z"></path>
  <path fill="#FD0034" d="M198.277 83.098l45.246-78.872 61.909 66.339zM424.207 176.283l68.659 2.117-22.207 64.851z"></path>
  <path fill="#FFDF29" d="M68.741 177.526l-.78.45c-3.671-6.358-9.255-10.542-16.752-12.551-7.497-2.008-14.424-1.177-20.784 2.494l-.45-.779c6.359-3.672 10.543-9.256 12.546-16.764 2.001-7.508 1.171-14.435-2.488-20.772l.78-.45c3.671 6.359 9.255 10.542 16.752 12.551 7.497 2.009 14.424 1.178 20.783-2.494l.45.78c-6.359 3.671-10.542 9.255-12.551 16.752-2.009 7.497-1.178 14.425 2.494 20.783zM371.603 156.518h-.865c0-7.057-2.637-13.223-7.912-18.498-5.275-5.274-11.44-7.911-18.498-7.911v-.866c7.058 0 13.223-2.637 18.498-7.923 5.275-5.288 7.912-11.453 7.912-18.486h.865c0 7.057 2.638 13.223 7.912 18.498 5.275 5.274 11.44 7.911 18.497 7.911v.865c-7.057 0-13.222 2.638-18.497 7.912-5.275 5.275-7.912 11.441-7.912 18.498zM459.697 374.524h-.67c0-5.467-2.043-10.243-6.13-14.329-4.086-4.087-8.862-6.13-14.33-6.13v-.67c5.468 0 10.244-2.043 14.33-6.139 4.087-4.096 6.13-8.872 6.13-14.32h.67c0 5.467 2.043 10.243 6.13 14.33 4.086 4.086 8.862 6.129 14.329 6.129v.67c-5.467 0-10.243 2.043-14.33 6.13-4.086 4.086-6.129 8.862-6.129 14.329z"></path>
</svg>
